<mxfile host="Electron" modified="2024-02-09T15:11:01.550Z" agent="Mozilla/5.0 (Windows NT 10.0; Win64; x64) AppleWebKit/537.36 (KHTML, like Gecko) draw.io/23.0.2 Chrome/120.0.6099.109 Electron/28.1.0 Safari/537.36" etag="Xhmfab5I4VKxBo70d0Qo" version="23.0.2" type="device">
  <diagram name="Page-1" id="F1ixCNOJA-XZiay1nvzO">
    <mxGraphModel dx="1434" dy="844" grid="1" gridSize="10" guides="1" tooltips="1" connect="1" arrows="1" fold="1" page="1" pageScale="1" pageWidth="850" pageHeight="1100" math="0" shadow="0">
      <root>
        <mxCell id="0" />
        <mxCell id="1" parent="0" />
        <mxCell id="UQ6uBy97Wy51hq3B2J4z-26" value="" style="edgeStyle=orthogonalEdgeStyle;rounded=0;orthogonalLoop=1;jettySize=auto;html=1;" edge="1" parent="1" source="UQ6uBy97Wy51hq3B2J4z-1" target="UQ6uBy97Wy51hq3B2J4z-16">
          <mxGeometry relative="1" as="geometry" />
        </mxCell>
        <mxCell id="UQ6uBy97Wy51hq3B2J4z-1" value="Dev CM" style="verticalLabelPosition=bottom;html=1;verticalAlign=top;align=center;strokeColor=none;fillColor=#00BEF2;shape=mxgraph.azure.azure_website;pointerEvents=1;" vertex="1" parent="1">
          <mxGeometry x="257.39" y="300" width="50" height="50" as="geometry" />
        </mxCell>
        <mxCell id="UQ6uBy97Wy51hq3B2J4z-30" value="" style="edgeStyle=orthogonalEdgeStyle;rounded=0;orthogonalLoop=1;jettySize=auto;html=1;" edge="1" parent="1" source="UQ6uBy97Wy51hq3B2J4z-2" target="UQ6uBy97Wy51hq3B2J4z-17">
          <mxGeometry relative="1" as="geometry" />
        </mxCell>
        <mxCell id="UQ6uBy97Wy51hq3B2J4z-2" value="QA App" style="outlineConnect=0;dashed=0;verticalLabelPosition=bottom;verticalAlign=top;align=center;html=1;shape=mxgraph.aws3.android;fillColor=#8CC64F;gradientColor=none;" vertex="1" parent="1">
          <mxGeometry x="574.8" y="385" width="50" height="60" as="geometry" />
        </mxCell>
        <mxCell id="UQ6uBy97Wy51hq3B2J4z-35" value="" style="edgeStyle=orthogonalEdgeStyle;rounded=0;orthogonalLoop=1;jettySize=auto;html=1;" edge="1" parent="1" source="UQ6uBy97Wy51hq3B2J4z-3" target="UQ6uBy97Wy51hq3B2J4z-8">
          <mxGeometry relative="1" as="geometry" />
        </mxCell>
        <mxCell id="UQ6uBy97Wy51hq3B2J4z-3" value="Azure DevOps" style="image;aspect=fixed;html=1;points=[];align=center;fontSize=12;image=img/lib/azure2/devops/Azure_DevOps.svg;" vertex="1" parent="1">
          <mxGeometry x="70" y="381" width="64" height="64" as="geometry" />
        </mxCell>
        <mxCell id="UQ6uBy97Wy51hq3B2J4z-4" value="Azure Git&lt;br&gt;Repository" style="sketch=0;outlineConnect=0;fontColor=#232F3E;gradientColor=none;fillColor=#232F3D;strokeColor=none;dashed=0;verticalLabelPosition=bottom;verticalAlign=top;align=center;html=1;fontSize=12;fontStyle=0;aspect=fixed;pointerEvents=1;shape=mxgraph.aws4.source_code;" vertex="1" parent="1">
          <mxGeometry x="73.5" y="210" width="57" height="78" as="geometry" />
        </mxCell>
        <mxCell id="UQ6uBy97Wy51hq3B2J4z-28" value="" style="edgeStyle=orthogonalEdgeStyle;rounded=0;orthogonalLoop=1;jettySize=auto;html=1;" edge="1" parent="1" source="UQ6uBy97Wy51hq3B2J4z-7" target="UQ6uBy97Wy51hq3B2J4z-18">
          <mxGeometry relative="1" as="geometry" />
        </mxCell>
        <mxCell id="UQ6uBy97Wy51hq3B2J4z-7" value="Prod CM" style="verticalLabelPosition=bottom;html=1;verticalAlign=top;align=center;strokeColor=none;fillColor=#00BEF2;shape=mxgraph.azure.azure_website;pointerEvents=1;" vertex="1" parent="1">
          <mxGeometry x="260" y="470" width="50" height="50" as="geometry" />
        </mxCell>
        <mxCell id="UQ6uBy97Wy51hq3B2J4z-27" value="" style="edgeStyle=orthogonalEdgeStyle;rounded=0;orthogonalLoop=1;jettySize=auto;html=1;" edge="1" parent="1" source="UQ6uBy97Wy51hq3B2J4z-8" target="UQ6uBy97Wy51hq3B2J4z-17">
          <mxGeometry relative="1" as="geometry" />
        </mxCell>
        <mxCell id="UQ6uBy97Wy51hq3B2J4z-8" value="QA CM" style="verticalLabelPosition=bottom;html=1;verticalAlign=top;align=center;strokeColor=none;fillColor=#00BEF2;shape=mxgraph.azure.azure_website;pointerEvents=1;" vertex="1" parent="1">
          <mxGeometry x="260" y="390" width="50" height="50" as="geometry" />
        </mxCell>
        <mxCell id="UQ6uBy97Wy51hq3B2J4z-29" value="" style="edgeStyle=orthogonalEdgeStyle;rounded=0;orthogonalLoop=1;jettySize=auto;html=1;" edge="1" parent="1" source="UQ6uBy97Wy51hq3B2J4z-9" target="UQ6uBy97Wy51hq3B2J4z-16">
          <mxGeometry relative="1" as="geometry" />
        </mxCell>
        <mxCell id="UQ6uBy97Wy51hq3B2J4z-9" value="Dev App" style="outlineConnect=0;dashed=0;verticalLabelPosition=bottom;verticalAlign=top;align=center;html=1;shape=mxgraph.aws3.android;fillColor=#8CC64F;gradientColor=none;" vertex="1" parent="1">
          <mxGeometry x="574.8000000000001" y="295.75" width="50" height="58.5" as="geometry" />
        </mxCell>
        <mxCell id="UQ6uBy97Wy51hq3B2J4z-31" value="" style="edgeStyle=orthogonalEdgeStyle;rounded=0;orthogonalLoop=1;jettySize=auto;html=1;" edge="1" parent="1" source="UQ6uBy97Wy51hq3B2J4z-10" target="UQ6uBy97Wy51hq3B2J4z-18">
          <mxGeometry relative="1" as="geometry" />
        </mxCell>
        <mxCell id="UQ6uBy97Wy51hq3B2J4z-10" value="Prod App" style="outlineConnect=0;dashed=0;verticalLabelPosition=bottom;verticalAlign=top;align=center;html=1;shape=mxgraph.aws3.android;fillColor=#8CC64F;gradientColor=none;" vertex="1" parent="1">
          <mxGeometry x="576.43" y="466.5" width="48.37" height="57" as="geometry" />
        </mxCell>
        <mxCell id="UQ6uBy97Wy51hq3B2J4z-34" value="" style="edgeStyle=orthogonalEdgeStyle;rounded=0;orthogonalLoop=1;jettySize=auto;html=1;" edge="1" parent="1" source="UQ6uBy97Wy51hq3B2J4z-11" target="UQ6uBy97Wy51hq3B2J4z-7">
          <mxGeometry relative="1" as="geometry" />
        </mxCell>
        <mxCell id="UQ6uBy97Wy51hq3B2J4z-11" value="Vercel&lt;br&gt;Preview App" style="outlineConnect=0;dashed=0;verticalLabelPosition=bottom;verticalAlign=top;align=center;html=1;shape=mxgraph.aws3.android;fillColor=#8CC64F;gradientColor=none;" vertex="1" parent="1">
          <mxGeometry x="262.12" y="605" width="45.75" height="50" as="geometry" />
        </mxCell>
        <mxCell id="UQ6uBy97Wy51hq3B2J4z-16" value="Dev" style="sketch=0;html=1;verticalAlign=top;labelPosition=center;verticalLabelPosition=bottom;align=center;spacingTop=-6;fontSize=11;fontStyle=1;fontColor=#999999;shape=image;aspect=fixed;imageAspect=0;image=data:image/svg+xml,PHN2ZyB4bWxucz0iaHR0cDovL3d3dy53My5vcmcvMjAwMC9zdmciIHhtbG5zOnY9Imh0dHBzOi8vdmVjdGEuaW8vbmFubyIgd2lkdGg9IjIwIiBoZWlnaHQ9IjIwIiB2aWV3Qm94PSIwIDAgMjAgMjAiPiYjeGE7CTxzdHlsZSB0eXBlPSJ0ZXh0L2NzcyI+JiN4YTsJLnN0MHtmaWxsOiM0Mjg1ZjQ7fSYjeGE7CS5zdDF7ZmlsbDojNjY5ZGY2O30mI3hhOwkuc3Qye2ZpbGw6I2FlY2JmYTt9JiN4YTsJPC9zdHlsZT4mI3hhOwk8cGF0aCBjbGFzcz0ic3QxIiBkPSJNMTMuMTMgNS42M1YzLjIxTDEwIDB2Mi40MXptMy43NSA3LjVMMjAgMTBoLTIuNWwtMy4xMiAzLjEzem0tMTMuNzUgMEwwIDEwaDIuNWwzLjEzIDMuMTN6bTEwIDEuMjV2Mi40MUwxMCAyMHYtMi40MXoiIGZpbGwtcnVsZT0iZXZlbm9kZCIvPiYjeGE7CTxwYXRoIGNsYXNzPSJzdDIiIGQ9Ik02Ljg4IDUuNjNMMTAgMi40MVYwTDYuODggMy4yMXpNMTcuNSAxMEgyMGwtMy4xMi0zLjEyaC0yLjV6bS0xNSAwSDBsMy4xMy0zLjEyaDIuNXptNC4zOCA0LjM4TDEwIDE3LjU5VjIwbC0zLjEyLTMuMjF6bTAtNy41aDYuMjV2Ni4yNUg2Ljg4eiIgZmlsbC1ydWxlPSJldmVub2RkIi8+JiN4YTsJPHBhdGggY2xhc3M9InN0MSIgZD0iTTYuODggMTMuMTNsNi4yNS02LjI1djYuMjV6IiBmaWxsLXJ1bGU9ImV2ZW5vZGQiLz4mI3hhOwk8cGF0aCBjbGFzcz0ic3QwIiBkPSJNMTAgMTBsMy4xMy0zLjEydjYuMjV6IiBmaWxsLXJ1bGU9ImV2ZW5vZGQiLz4mI3hhOzwvc3ZnPg==;" vertex="1" parent="1">
          <mxGeometry x="416" y="304" width="42" height="42" as="geometry" />
        </mxCell>
        <mxCell id="UQ6uBy97Wy51hq3B2J4z-17" value="QA" style="sketch=0;html=1;verticalAlign=top;labelPosition=center;verticalLabelPosition=bottom;align=center;spacingTop=-6;fontSize=11;fontStyle=1;fontColor=#999999;shape=image;aspect=fixed;imageAspect=0;image=data:image/svg+xml,PHN2ZyB4bWxucz0iaHR0cDovL3d3dy53My5vcmcvMjAwMC9zdmciIHhtbG5zOnY9Imh0dHBzOi8vdmVjdGEuaW8vbmFubyIgd2lkdGg9IjIwIiBoZWlnaHQ9IjIwIiB2aWV3Qm94PSIwIDAgMjAgMjAiPiYjeGE7CTxzdHlsZSB0eXBlPSJ0ZXh0L2NzcyI+JiN4YTsJLnN0MHtmaWxsOiM0Mjg1ZjQ7fSYjeGE7CS5zdDF7ZmlsbDojNjY5ZGY2O30mI3hhOwkuc3Qye2ZpbGw6I2FlY2JmYTt9JiN4YTsJPC9zdHlsZT4mI3hhOwk8cGF0aCBjbGFzcz0ic3QxIiBkPSJNMTMuMTMgNS42M1YzLjIxTDEwIDB2Mi40MXptMy43NSA3LjVMMjAgMTBoLTIuNWwtMy4xMiAzLjEzem0tMTMuNzUgMEwwIDEwaDIuNWwzLjEzIDMuMTN6bTEwIDEuMjV2Mi40MUwxMCAyMHYtMi40MXoiIGZpbGwtcnVsZT0iZXZlbm9kZCIvPiYjeGE7CTxwYXRoIGNsYXNzPSJzdDIiIGQ9Ik02Ljg4IDUuNjNMMTAgMi40MVYwTDYuODggMy4yMXpNMTcuNSAxMEgyMGwtMy4xMi0zLjEyaC0yLjV6bS0xNSAwSDBsMy4xMy0zLjEyaDIuNXptNC4zOCA0LjM4TDEwIDE3LjU5VjIwbC0zLjEyLTMuMjF6bTAtNy41aDYuMjV2Ni4yNUg2Ljg4eiIgZmlsbC1ydWxlPSJldmVub2RkIi8+JiN4YTsJPHBhdGggY2xhc3M9InN0MSIgZD0iTTYuODggMTMuMTNsNi4yNS02LjI1djYuMjV6IiBmaWxsLXJ1bGU9ImV2ZW5vZGQiLz4mI3hhOwk8cGF0aCBjbGFzcz0ic3QwIiBkPSJNMTAgMTBsMy4xMy0zLjEydjYuMjV6IiBmaWxsLXJ1bGU9ImV2ZW5vZGQiLz4mI3hhOzwvc3ZnPg==;" vertex="1" parent="1">
          <mxGeometry x="416" y="394" width="42" height="42" as="geometry" />
        </mxCell>
        <mxCell id="UQ6uBy97Wy51hq3B2J4z-18" value="Prod" style="sketch=0;html=1;verticalAlign=top;labelPosition=center;verticalLabelPosition=bottom;align=center;spacingTop=-6;fontSize=11;fontStyle=1;fontColor=#999999;shape=image;aspect=fixed;imageAspect=0;image=data:image/svg+xml,PHN2ZyB4bWxucz0iaHR0cDovL3d3dy53My5vcmcvMjAwMC9zdmciIHhtbG5zOnY9Imh0dHBzOi8vdmVjdGEuaW8vbmFubyIgd2lkdGg9IjIwIiBoZWlnaHQ9IjIwIiB2aWV3Qm94PSIwIDAgMjAgMjAiPiYjeGE7CTxzdHlsZSB0eXBlPSJ0ZXh0L2NzcyI+JiN4YTsJLnN0MHtmaWxsOiM0Mjg1ZjQ7fSYjeGE7CS5zdDF7ZmlsbDojNjY5ZGY2O30mI3hhOwkuc3Qye2ZpbGw6I2FlY2JmYTt9JiN4YTsJPC9zdHlsZT4mI3hhOwk8cGF0aCBjbGFzcz0ic3QxIiBkPSJNMTMuMTMgNS42M1YzLjIxTDEwIDB2Mi40MXptMy43NSA3LjVMMjAgMTBoLTIuNWwtMy4xMiAzLjEzem0tMTMuNzUgMEwwIDEwaDIuNWwzLjEzIDMuMTN6bTEwIDEuMjV2Mi40MUwxMCAyMHYtMi40MXoiIGZpbGwtcnVsZT0iZXZlbm9kZCIvPiYjeGE7CTxwYXRoIGNsYXNzPSJzdDIiIGQ9Ik02Ljg4IDUuNjNMMTAgMi40MVYwTDYuODggMy4yMXpNMTcuNSAxMEgyMGwtMy4xMi0zLjEyaC0yLjV6bS0xNSAwSDBsMy4xMy0zLjEyaDIuNXptNC4zOCA0LjM4TDEwIDE3LjU5VjIwbC0zLjEyLTMuMjF6bTAtNy41aDYuMjV2Ni4yNUg2Ljg4eiIgZmlsbC1ydWxlPSJldmVub2RkIi8+JiN4YTsJPHBhdGggY2xhc3M9InN0MSIgZD0iTTYuODggMTMuMTNsNi4yNS02LjI1djYuMjV6IiBmaWxsLXJ1bGU9ImV2ZW5vZGQiLz4mI3hhOwk8cGF0aCBjbGFzcz0ic3QwIiBkPSJNMTAgMTBsMy4xMy0zLjEydjYuMjV6IiBmaWxsLXJ1bGU9ImV2ZW5vZGQiLz4mI3hhOzwvc3ZnPg==;" vertex="1" parent="1">
          <mxGeometry x="416" y="474" width="42" height="42" as="geometry" />
        </mxCell>
        <mxCell id="UQ6uBy97Wy51hq3B2J4z-21" value="" style="endArrow=none;html=1;rounded=0;" edge="1" parent="1">
          <mxGeometry width="50" height="50" relative="1" as="geometry">
            <mxPoint x="376.5" y="560" as="sourcePoint" />
            <mxPoint x="376.5" y="250" as="targetPoint" />
          </mxGeometry>
        </mxCell>
        <mxCell id="UQ6uBy97Wy51hq3B2J4z-22" value="" style="endArrow=none;html=1;rounded=0;" edge="1" parent="1">
          <mxGeometry width="50" height="50" relative="1" as="geometry">
            <mxPoint x="496.5" y="560" as="sourcePoint" />
            <mxPoint x="496.5" y="250" as="targetPoint" />
          </mxGeometry>
        </mxCell>
        <mxCell id="UQ6uBy97Wy51hq3B2J4z-24" value="" style="endArrow=none;html=1;rounded=0;" edge="1" parent="1">
          <mxGeometry width="50" height="50" relative="1" as="geometry">
            <mxPoint x="376.5" y="250" as="sourcePoint" />
            <mxPoint x="496.5" y="250" as="targetPoint" />
          </mxGeometry>
        </mxCell>
        <mxCell id="UQ6uBy97Wy51hq3B2J4z-25" value="" style="endArrow=none;html=1;rounded=0;" edge="1" parent="1">
          <mxGeometry width="50" height="50" relative="1" as="geometry">
            <mxPoint x="376.5" y="561.5" as="sourcePoint" />
            <mxPoint x="496.5" y="561.5" as="targetPoint" />
          </mxGeometry>
        </mxCell>
        <mxCell id="UQ6uBy97Wy51hq3B2J4z-36" value="" style="endArrow=classic;html=1;rounded=0;entryX=0.145;entryY=0.855;entryDx=0;entryDy=0;entryPerimeter=0;" edge="1" parent="1" source="UQ6uBy97Wy51hq3B2J4z-3" target="UQ6uBy97Wy51hq3B2J4z-1">
          <mxGeometry width="50" height="50" relative="1" as="geometry">
            <mxPoint x="400" y="360" as="sourcePoint" />
            <mxPoint x="450" y="310" as="targetPoint" />
          </mxGeometry>
        </mxCell>
        <mxCell id="UQ6uBy97Wy51hq3B2J4z-37" value="" style="endArrow=classic;html=1;rounded=0;exitX=0.984;exitY=0.797;exitDx=0;exitDy=0;exitPerimeter=0;entryX=-0.12;entryY=0.9;entryDx=0;entryDy=0;entryPerimeter=0;" edge="1" parent="1" source="UQ6uBy97Wy51hq3B2J4z-3" target="UQ6uBy97Wy51hq3B2J4z-7">
          <mxGeometry width="50" height="50" relative="1" as="geometry">
            <mxPoint x="84" y="620" as="sourcePoint" />
            <mxPoint x="134" y="570" as="targetPoint" />
          </mxGeometry>
        </mxCell>
        <mxCell id="UQ6uBy97Wy51hq3B2J4z-40" value="XM Cloud&lt;br&gt;Publishes to&lt;br&gt;the Edge" style="shape=note;strokeWidth=2;fontSize=14;size=20;whiteSpace=wrap;html=1;fillColor=#fff2cc;strokeColor=#d6b656;fontColor=#666600;" vertex="1" parent="1">
          <mxGeometry x="230" y="160" width="110.00000000000001" height="80" as="geometry" />
        </mxCell>
        <mxCell id="UQ6uBy97Wy51hq3B2J4z-41" value="Head App&lt;br&gt;Gets Content from the Edge" style="shape=note;strokeWidth=2;fontSize=14;size=20;whiteSpace=wrap;html=1;fillColor=#fff2cc;strokeColor=#d6b656;fontColor=#666600;" vertex="1" parent="1">
          <mxGeometry x="545.61" y="160" width="110.00000000000001" height="80" as="geometry" />
        </mxCell>
        <mxCell id="UQ6uBy97Wy51hq3B2J4z-42" value="Preview App gets content from XM Cloud&lt;br&gt;-Gated Access-" style="shape=note;strokeWidth=2;fontSize=14;size=20;whiteSpace=wrap;html=1;fillColor=#fff2cc;strokeColor=#d6b656;fontColor=#666600;" vertex="1" parent="1">
          <mxGeometry x="110" y="665" width="110.00000000000001" height="80" as="geometry" />
        </mxCell>
        <mxCell id="UQ6uBy97Wy51hq3B2J4z-43" value="" style="endArrow=classic;html=1;rounded=0;entryX=0.484;entryY=0.031;entryDx=0;entryDy=0;entryPerimeter=0;" edge="1" parent="1" source="UQ6uBy97Wy51hq3B2J4z-4" target="UQ6uBy97Wy51hq3B2J4z-3">
          <mxGeometry width="50" height="50" relative="1" as="geometry">
            <mxPoint x="150" y="118" as="sourcePoint" />
            <mxPoint x="200" y="68" as="targetPoint" />
          </mxGeometry>
        </mxCell>
        <mxCell id="UQ6uBy97Wy51hq3B2J4z-47" value="" style="edgeStyle=orthogonalEdgeStyle;rounded=0;orthogonalLoop=1;jettySize=auto;html=1;" edge="1" parent="1" source="UQ6uBy97Wy51hq3B2J4z-44" target="UQ6uBy97Wy51hq3B2J4z-2">
          <mxGeometry relative="1" as="geometry" />
        </mxCell>
        <mxCell id="UQ6uBy97Wy51hq3B2J4z-44" value="Azure DevOps" style="image;aspect=fixed;html=1;points=[];align=center;fontSize=12;image=img/lib/azure2/devops/Azure_DevOps.svg;" vertex="1" parent="1">
          <mxGeometry x="723.5" y="385.25" width="64" height="64" as="geometry" />
        </mxCell>
        <mxCell id="UQ6uBy97Wy51hq3B2J4z-48" value="" style="endArrow=classic;html=1;rounded=0;entryX=1;entryY=0.5;entryDx=0;entryDy=0;entryPerimeter=0;" edge="1" parent="1" source="UQ6uBy97Wy51hq3B2J4z-44" target="UQ6uBy97Wy51hq3B2J4z-10">
          <mxGeometry width="50" height="50" relative="1" as="geometry">
            <mxPoint x="730" y="510" as="sourcePoint" />
            <mxPoint x="740" y="640" as="targetPoint" />
          </mxGeometry>
        </mxCell>
        <mxCell id="UQ6uBy97Wy51hq3B2J4z-49" value="" style="endArrow=classic;html=1;rounded=0;entryX=1;entryY=0.75;entryDx=0;entryDy=0;entryPerimeter=0;exitX=0.102;exitY=0.094;exitDx=0;exitDy=0;exitPerimeter=0;" edge="1" parent="1" source="UQ6uBy97Wy51hq3B2J4z-44" target="UQ6uBy97Wy51hq3B2J4z-9">
          <mxGeometry width="50" height="50" relative="1" as="geometry">
            <mxPoint x="734" y="428" as="sourcePoint" />
            <mxPoint x="625" y="506" as="targetPoint" />
          </mxGeometry>
        </mxCell>
        <mxCell id="UQ6uBy97Wy51hq3B2J4z-51" value="Sitecore CLI Deployment" style="shape=note2;boundedLbl=1;whiteSpace=wrap;html=1;size=25;verticalAlign=top;align=center;" vertex="1" parent="1">
          <mxGeometry x="42" y="498" width="120" height="60" as="geometry" />
        </mxCell>
        <mxCell id="UQ6uBy97Wy51hq3B2J4z-52" value="Vercel CLI Deployment" style="shape=note2;boundedLbl=1;whiteSpace=wrap;html=1;size=25;verticalAlign=top;align=center;" vertex="1" parent="1">
          <mxGeometry x="695.5" y="512.25" width="120" height="60" as="geometry" />
        </mxCell>
        <mxCell id="UQ6uBy97Wy51hq3B2J4z-53" value="" style="endArrow=none;dashed=1;html=1;dashPattern=1 3;strokeWidth=2;rounded=0;" edge="1" parent="1" source="UQ6uBy97Wy51hq3B2J4z-51" target="UQ6uBy97Wy51hq3B2J4z-3">
          <mxGeometry width="50" height="50" relative="1" as="geometry">
            <mxPoint x="100" y="488" as="sourcePoint" />
            <mxPoint x="92" y="598" as="targetPoint" />
          </mxGeometry>
        </mxCell>
        <mxCell id="UQ6uBy97Wy51hq3B2J4z-54" value="" style="endArrow=none;dashed=1;html=1;dashPattern=1 3;strokeWidth=2;rounded=0;exitX=0.454;exitY=0.05;exitDx=0;exitDy=0;exitPerimeter=0;" edge="1" parent="1" source="UQ6uBy97Wy51hq3B2J4z-52" target="UQ6uBy97Wy51hq3B2J4z-44">
          <mxGeometry width="50" height="50" relative="1" as="geometry">
            <mxPoint x="740" y="702.25" as="sourcePoint" />
            <mxPoint x="790" y="652.25" as="targetPoint" />
          </mxGeometry>
        </mxCell>
        <mxCell id="UQ6uBy97Wy51hq3B2J4z-55" value="Azure Git&lt;br&gt;Repository" style="sketch=0;outlineConnect=0;fontColor=#232F3E;gradientColor=none;fillColor=#232F3D;strokeColor=none;dashed=0;verticalLabelPosition=bottom;verticalAlign=top;align=center;html=1;fontSize=12;fontStyle=0;aspect=fixed;pointerEvents=1;shape=mxgraph.aws4.source_code;" vertex="1" parent="1">
          <mxGeometry x="727" y="210" width="57" height="78" as="geometry" />
        </mxCell>
        <mxCell id="UQ6uBy97Wy51hq3B2J4z-56" value="" style="endArrow=classic;html=1;rounded=0;entryX=0.492;entryY=0.031;entryDx=0;entryDy=0;entryPerimeter=0;" edge="1" parent="1" source="UQ6uBy97Wy51hq3B2J4z-55" target="UQ6uBy97Wy51hq3B2J4z-44">
          <mxGeometry width="50" height="50" relative="1" as="geometry">
            <mxPoint x="600" y="712.25" as="sourcePoint" />
            <mxPoint x="650" y="662.25" as="targetPoint" />
          </mxGeometry>
        </mxCell>
        <mxCell id="UQ6uBy97Wy51hq3B2J4z-57" value="WWW" style="dashed=0;outlineConnect=0;html=1;align=center;labelPosition=center;verticalLabelPosition=bottom;verticalAlign=top;shape=mxgraph.weblogos.chrome" vertex="1" parent="1">
          <mxGeometry x="564.8" y="655" width="74.8" height="75.4" as="geometry" />
        </mxCell>
        <mxCell id="UQ6uBy97Wy51hq3B2J4z-58" value="" style="endArrow=classic;html=1;rounded=0;entryX=0.5;entryY=1;entryDx=0;entryDy=0;entryPerimeter=0;" edge="1" parent="1" source="UQ6uBy97Wy51hq3B2J4z-57" target="UQ6uBy97Wy51hq3B2J4z-10">
          <mxGeometry width="50" height="50" relative="1" as="geometry">
            <mxPoint x="430" y="660" as="sourcePoint" />
            <mxPoint x="440" y="560" as="targetPoint" />
          </mxGeometry>
        </mxCell>
        <mxCell id="UQ6uBy97Wy51hq3B2J4z-59" value="Coveo" style="html=1;verticalLabelPosition=bottom;align=center;labelBackgroundColor=#ffffff;verticalAlign=top;strokeWidth=2;strokeColor=#0080F0;shadow=0;dashed=0;shape=mxgraph.ios7.icons.looking_glass;" vertex="1" parent="1">
          <mxGeometry x="416" y="625" width="42" height="40" as="geometry" />
        </mxCell>
        <mxCell id="UQ6uBy97Wy51hq3B2J4z-60" value="" style="endArrow=classic;html=1;rounded=0;" edge="1" parent="1">
          <mxGeometry width="50" height="50" relative="1" as="geometry">
            <mxPoint x="440" y="640" as="sourcePoint" />
            <mxPoint x="440" y="560" as="targetPoint" />
          </mxGeometry>
        </mxCell>
        <mxCell id="UQ6uBy97Wy51hq3B2J4z-61" value="" style="endArrow=classic;html=1;rounded=0;exitX=0;exitY=0.75;exitDx=0;exitDy=0;exitPerimeter=0;entryX=0.643;entryY=0.45;entryDx=0;entryDy=0;entryPerimeter=0;" edge="1" parent="1" source="UQ6uBy97Wy51hq3B2J4z-10" target="UQ6uBy97Wy51hq3B2J4z-59">
          <mxGeometry width="50" height="50" relative="1" as="geometry">
            <mxPoint x="250" y="880" as="sourcePoint" />
            <mxPoint x="470" y="630" as="targetPoint" />
          </mxGeometry>
        </mxCell>
        <mxCell id="UQ6uBy97Wy51hq3B2J4z-62" value="" style="endArrow=classic;html=1;rounded=0;exitX=1;exitY=0.75;exitDx=0;exitDy=0;exitPerimeter=0;entryX=-0.024;entryY=0.475;entryDx=0;entryDy=0;entryPerimeter=0;" edge="1" parent="1" source="UQ6uBy97Wy51hq3B2J4z-11" target="UQ6uBy97Wy51hq3B2J4z-59">
          <mxGeometry width="50" height="50" relative="1" as="geometry">
            <mxPoint x="280" y="840" as="sourcePoint" />
            <mxPoint x="330" y="790" as="targetPoint" />
          </mxGeometry>
        </mxCell>
        <mxCell id="UQ6uBy97Wy51hq3B2J4z-63" value="" style="endArrow=none;html=1;rounded=0;" edge="1" parent="1">
          <mxGeometry width="50" height="50" relative="1" as="geometry">
            <mxPoint x="220" y="560" as="sourcePoint" />
            <mxPoint x="220" y="250" as="targetPoint" />
          </mxGeometry>
        </mxCell>
        <mxCell id="UQ6uBy97Wy51hq3B2J4z-64" value="" style="endArrow=none;html=1;rounded=0;" edge="1" parent="1">
          <mxGeometry width="50" height="50" relative="1" as="geometry">
            <mxPoint x="220" y="250" as="sourcePoint" />
            <mxPoint x="340" y="250" as="targetPoint" />
          </mxGeometry>
        </mxCell>
        <mxCell id="UQ6uBy97Wy51hq3B2J4z-65" value="" style="endArrow=none;html=1;rounded=0;" edge="1" parent="1">
          <mxGeometry width="50" height="50" relative="1" as="geometry">
            <mxPoint x="340" y="560" as="sourcePoint" />
            <mxPoint x="340" y="250" as="targetPoint" />
          </mxGeometry>
        </mxCell>
        <mxCell id="UQ6uBy97Wy51hq3B2J4z-66" value="" style="endArrow=none;html=1;rounded=0;" edge="1" parent="1">
          <mxGeometry width="50" height="50" relative="1" as="geometry">
            <mxPoint x="220" y="560" as="sourcePoint" />
            <mxPoint x="340" y="560" as="targetPoint" />
          </mxGeometry>
        </mxCell>
        <mxCell id="UQ6uBy97Wy51hq3B2J4z-67" value="" style="endArrow=none;html=1;rounded=0;" edge="1" parent="1">
          <mxGeometry width="50" height="50" relative="1" as="geometry">
            <mxPoint x="540" y="558" as="sourcePoint" />
            <mxPoint x="540" y="248" as="targetPoint" />
          </mxGeometry>
        </mxCell>
        <mxCell id="UQ6uBy97Wy51hq3B2J4z-68" value="" style="endArrow=none;html=1;rounded=0;" edge="1" parent="1">
          <mxGeometry width="50" height="50" relative="1" as="geometry">
            <mxPoint x="540" y="248.5" as="sourcePoint" />
            <mxPoint x="660" y="248.5" as="targetPoint" />
          </mxGeometry>
        </mxCell>
        <mxCell id="UQ6uBy97Wy51hq3B2J4z-69" value="" style="endArrow=none;html=1;rounded=0;" edge="1" parent="1">
          <mxGeometry width="50" height="50" relative="1" as="geometry">
            <mxPoint x="660" y="558" as="sourcePoint" />
            <mxPoint x="660" y="248" as="targetPoint" />
          </mxGeometry>
        </mxCell>
        <mxCell id="UQ6uBy97Wy51hq3B2J4z-70" value="" style="endArrow=none;html=1;rounded=0;" edge="1" parent="1">
          <mxGeometry width="50" height="50" relative="1" as="geometry">
            <mxPoint x="540" y="558" as="sourcePoint" />
            <mxPoint x="660" y="558" as="targetPoint" />
          </mxGeometry>
        </mxCell>
        <mxCell id="UQ6uBy97Wy51hq3B2J4z-71" value="XM Cloud" style="text;html=1;strokeColor=none;fillColor=none;align=center;verticalAlign=middle;whiteSpace=wrap;rounded=0;" vertex="1" parent="1">
          <mxGeometry x="252.39" y="250" width="60" height="30" as="geometry" />
        </mxCell>
        <mxCell id="UQ6uBy97Wy51hq3B2J4z-73" value="Edge" style="text;html=1;strokeColor=none;fillColor=none;align=center;verticalAlign=middle;whiteSpace=wrap;rounded=0;" vertex="1" parent="1">
          <mxGeometry x="407" y="250" width="60" height="30" as="geometry" />
        </mxCell>
        <mxCell id="UQ6uBy97Wy51hq3B2J4z-74" value="Vercel" style="text;html=1;strokeColor=none;fillColor=none;align=center;verticalAlign=middle;whiteSpace=wrap;rounded=0;" vertex="1" parent="1">
          <mxGeometry x="564.8" y="250" width="60" height="30" as="geometry" />
        </mxCell>
        <mxCell id="UQ6uBy97Wy51hq3B2J4z-75" value="Westfield&lt;br&gt;Stakeholders" style="dashed=0;outlineConnect=0;html=1;align=center;labelPosition=center;verticalLabelPosition=bottom;verticalAlign=top;shape=mxgraph.weblogos.chrome" vertex="1" parent="1">
          <mxGeometry x="247.59000000000003" y="730.4" width="74.8" height="75.4" as="geometry" />
        </mxCell>
        <mxCell id="UQ6uBy97Wy51hq3B2J4z-76" value="" style="endArrow=classic;html=1;rounded=0;" edge="1" parent="1" source="UQ6uBy97Wy51hq3B2J4z-75" target="UQ6uBy97Wy51hq3B2J4z-11">
          <mxGeometry width="50" height="50" relative="1" as="geometry">
            <mxPoint x="170" y="830" as="sourcePoint" />
            <mxPoint x="220" y="780" as="targetPoint" />
          </mxGeometry>
        </mxCell>
        <mxCell id="UQ6uBy97Wy51hq3B2J4z-77" value="Sitecore Edge - Cloudflare CDN" style="shape=note;strokeWidth=2;fontSize=14;size=20;whiteSpace=wrap;html=1;fillColor=#fff2cc;strokeColor=#d6b656;fontColor=#666600;" vertex="1" parent="1">
          <mxGeometry x="382" y="160" width="110.00000000000001" height="80" as="geometry" />
        </mxCell>
        <mxCell id="UQ6uBy97Wy51hq3B2J4z-79" value="" style="shape=link;html=1;rounded=0;" edge="1" parent="1">
          <mxGeometry width="100" relative="1" as="geometry">
            <mxPoint x="240" y="710" as="sourcePoint" />
            <mxPoint x="340" y="710" as="targetPoint" />
          </mxGeometry>
        </mxCell>
      </root>
    </mxGraphModel>
  </diagram>
</mxfile>
